<svg xmlns="http://www.w3.org/2000/svg" width="74.638" height="81.845" viewBox="0 0 74.638 81.845"><path d="M54.447 18.543a20.191 20.191 0 1 0 20.191 20.191 20.191 20.191 0 0 0-20.191-20.191ZM68.7 39.922a1.188 1.188 0 0 1-1.188-1.188 13.08 13.08 0 0 0-13.065-13.065 1.188 1.188 0 0 1 0-2.375 15.458 15.458 0 0 1 15.44 15.44 1.188 1.188 0 0 1-1.187 1.188ZM41.383 68.78a13.065 13.065 0 1 0-13.065 13.065A13.065 13.065 0 0 0 41.383 68.78Zm-4.751 0a8.323 8.323 0 0 1-8.314 8.314 1.188 1.188 0 1 1 0-2.375 5.946 5.946 0 0 0 5.935-5.939 1.188 1.188 0 1 1 2.375 0Z" fill="#ff5c5c"/><g fill="#0a346d"><path d="M55.822 14.807H45.073A15.675 15.675 0 0 0 29.692 0a15.675 15.675 0 0 0-15.381 14.807H3.563A3.634 3.634 0 0 0 0 18.507v27.139a3.634 3.634 0 0 0 3.563 3.7h21.046l-1.782 7.4h-2.636a1.234 1.234 0 0 0 0 2.467h19a1.234 1.234 0 0 0 0-2.467h-2.633l-1.782-7.4h21.046a3.634 3.634 0 0 0 3.563-3.7V18.507a3.634 3.634 0 0 0-3.563-3.7ZM29.693 2.476a13.324 13.324 0 0 1 13.065 13.568 13.324 13.324 0 0 1-13.065 13.563 13.324 13.324 0 0 1-13.065-13.563A13.339 13.339 0 0 1 29.693 2.476ZM3.563 17.277h10.75a15.675 15.675 0 0 0 15.381 14.81 15.675 15.675 0 0 0 15.381-14.81h10.747a1.211 1.211 0 0 1 1.188 1.23v20.972H2.375V18.507a1.211 1.211 0 0 1 1.188-1.23Zm30.547 39.47h-8.834l1.782-7.4h5.271Zm21.713-9.868H3.563a1.211 1.211 0 0 1-1.188-1.233v-3.7H57.01v3.7a1.211 1.211 0 0 1-1.188 1.234Z"/><path d="M25.425 22.329a6.316 6.316 0 0 0 3.039 1.166v1.456a1.188 1.188 0 1 0 2.375 0v-1.5a5.226 5.226 0 0 0 4.147-4.241 4.548 4.548 0 0 0-3.13-5.206 44.3 44.3 0 0 1-1.018-.374V9.172a3.045 3.045 0 0 1 1.2.562 1.188 1.188 0 0 0 1.6-1.754 5.593 5.593 0 0 0-2.8-1.208v-.824a1.188 1.188 0 0 0-2.375 0v1c-.039.011-.074.011-.119.023a4.322 4.322 0 0 0-2.961 3.389 3.827 3.827 0 0 0 1.259 3.769 9.353 9.353 0 0 0 1.816 1.077v5.9a4.234 4.234 0 0 1-1.74-.76 1.188 1.188 0 1 0-1.3 1.988Zm2.689-10.069a1.5 1.5 0 0 1-.39-1.459 2.106 2.106 0 0 1 .74-1.247v2.93c-.116-.078-.25-.15-.35-.224Zm2.953 3.986a2.221 2.221 0 0 1 1.578 2.573 2.828 2.828 0 0 1-1.805 2.182V16.16c.077.025.147.052.227.08Z"/></g></svg>