<svg xmlns="http://www.w3.org/2000/svg" width="80.436" height="85.983" viewBox="0 0 80.436 85.983"><path d="M67.618 25c-2.831.707-4.2-.237-6.689-1.942-3.843-2.635-9.233-5.845-13.352-3.736a6.322 6.322 0 0 0-2.763 2.887c-3.667.155-5.988 1.248-6.9 3.235-1.43 3.109 1.279 7.016 2.308 8.331v6.438a12.482 12.482 0 1 0 24.963 0v-8.33a12.025 12.025 0 0 0 4.075-5.047A1.387 1.387 0 0 0 67.618 25ZM52.699 49.925a9.719 9.719 0 0 1-9.708-9.708V33.64a5.385 5.385 0 0 1 2.7-2.451c1.653-.435 8.949 5.056 16.715 2.144v6.884a9.719 9.719 0 0 1-9.707 9.708Zm24.769 13.328-11.552-3.467-3.911-3.913a1.387 1.387 0 0 0-1.747-.166L52.7 60.743l-7.558-5.034a1.387 1.387 0 0 0-1.747.166l-3.912 3.911-11.552 3.467a4.148 4.148 0 0 0-2.968 3.994v14.575a4.173 4.173 0 0 0 4.16 4.16h47.153a4.173 4.173 0 0 0 4.16-4.16V67.247a4.148 4.148 0 0 0-2.968-3.994Zm-29.205 3.855-6.088-6.088 2.388-2.371 6.268 4.174Zm6.31-4.285 6.268-4.174 2.385 2.371-6.088 6.088Zm16.155 13.45h-6.934a1.387 1.387 0 1 1 0-2.774h6.934a1.387 1.387 0 0 1 0 2.774Z" fill="#ff5c5c"/><g fill="#0a346d"><path d="M65.939 19.625a6.866 6.866 0 0 0-9.744 0l-9.342 9.4V4.16A4.152 4.152 0 0 0 42.714 0H4.134A4.152 4.152 0 0 0 0 4.16v61.02a4.152 4.152 0 0 0 4.134 4.16h38.58a4.152 4.152 0 0 0 4.134-4.16V48.637l19.091-19.206a6.973 6.973 0 0 0 0-9.806ZM37.681 53.947l-5.847-5.883 23.387-23.537 5.847 5.884Zm-7.193-3.316L35.13 55.3l-6.963 2.335ZM44.1 65.181a1.387 1.387 0 0 1-1.379 1.387H4.134a1.387 1.387 0 0 1-1.379-1.387V4.16a1.387 1.387 0 0 1 1.379-1.386h38.58A1.387 1.387 0 0 1 44.1 4.16V31.8L28.911 47.083a3.973 3.973 0 0 0-.333.541L25.06 58.247H12.4a1.387 1.387 0 1 0 0 2.774h12.925a1.273 1.273 0 0 0 1.1.126l11.694-3.923a4.054 4.054 0 0 0 .538-.334l5.443-5.479ZM63.991 27.47l-.971.98-5.847-5.884.971-.98a4.123 4.123 0 0 1 5.847 0 4.185 4.185 0 0 1 0 5.884Z"/><path d="M23.428 20.802a6.934 6.934 0 1 0-6.891-6.934 6.934 6.934 0 0 0 6.891 6.934Zm0-11.095a4.16 4.16 0 1 1-4.134 4.16 4.16 4.16 0 0 1 4.134-4.159Zm-6.892 24.964h13.781a5.548 5.548 0 1 0 0-11.095H16.536a5.548 5.548 0 1 0 0 11.095Zm0-8.321h13.781a2.774 2.774 0 1 1 0 5.547H16.536a2.774 2.774 0 0 1 0-5.547Z"/></g></svg>