<svg xmlns="http://www.w3.org/2000/svg" width="84.007" height="71.999" viewBox="0 0 84.007 71.999"><path d="M22.23 71.999V36.387h61.776v35.612H22.23Zm3.861-31.778v27.821h54.054V40.221H26.091Zm36.68 13.972c0-6.555-4.321-11.871-9.653-11.871h25.1v23.742h-25.1c5.332 0 9.653-5.316 9.653-11.871Zm7.722 3.957c1.6 0 2.9-1.773 2.9-3.957s-1.3-3.957-2.9-3.957-2.9 1.773-2.9 3.957 1.301 3.957 2.9 3.957Zm-13.286-8.947a.509.509 0 0 1-.12.235.292.292 0 0 1-.21.073.994.994 0 0 1-.423-.17 8.836 8.836 0 0 0-.71-.374 7.01 7.01 0 0 0-.977-.37 4.238 4.238 0 0 0-1.218-.164 2.825 2.825 0 0 0-.905.129 1.856 1.856 0 0 0-.645.356 1.423 1.423 0 0 0-.386.548 1.845 1.845 0 0 0-.125.677 1.52 1.52 0 0 0 .284.922 2.743 2.743 0 0 0 .761.692 7.765 7.765 0 0 0 1.081.568c.4.178.811.366 1.23.562a12.277 12.277 0 0 1 1.23.675 4.922 4.922 0 0 1 1.075.9 4.287 4.287 0 0 1 .761 1.235 4.425 4.425 0 0 1 .288 1.676 5.049 5.049 0 0 1-.456 2.212 4.56 4.56 0 0 1-1.245 1.587 5.344 5.344 0 0 1-1.838.958c-.089.028-.185.04-.276.061v2.16h-1.9v-1.904h-.069a7.945 7.945 0 0 1-1.5-.133 8.786 8.786 0 0 1-1.224-.324 5.3 5.3 0 0 1-.886-.4 2.494 2.494 0 0 1-.512-.368.937.937 0 0 1-.224-.463 4.327 4.327 0 0 1-.068-.872 6.8 6.8 0 0 1 .025-.643 1.959 1.959 0 0 1 .079-.421.451.451 0 0 1 .145-.229.348.348 0 0 1 .21-.067.99.99 0 0 1 .477.2 8.183 8.183 0 0 0 .79.451 7.115 7.115 0 0 0 1.153.453 5.38 5.38 0 0 0 1.55.2 3.484 3.484 0 0 0 1.037-.142 2.283 2.283 0 0 0 .778-.4 1.729 1.729 0 0 0 .488-.643 2.084 2.084 0 0 0 .17-.857 1.538 1.538 0 0 0-.29-.934 2.923 2.923 0 0 0-.755-.692 7.809 7.809 0 0 0-1.054-.568q-.591-.267-1.218-.562a10.841 10.841 0 0 1-1.218-.675 4.937 4.937 0 0 1-1.054-.9 4.258 4.258 0 0 1-.753-1.242 4.577 4.577 0 0 1-.29-1.717 4.647 4.647 0 0 1 .415-2.02 4.121 4.121 0 0 1 1.122-1.444 4.765 4.765 0 0 1 1.664-.859 6.622 6.622 0 0 1 1.015-.216v-2.035h1.9v2.046c.075.01.151.006.226.018a7.364 7.364 0 0 1 1.037.233 5.456 5.456 0 0 1 .857.33 1.973 1.973 0 0 1 .494.307.933.933 0 0 1 .164.208 1.143 1.143 0 0 1 .071.229 2.261 2.261 0 0 1 .041.36c.008.142.012.322.012.536 0 .239-.006.443-.017.609a2.826 2.826 0 0 1-.066.4Zm-13.742 4.99c0 6.555 4.321 11.871 9.653 11.871H28.021V42.322h25.1c-5.332 0-9.653 5.316-9.653 11.871Zm-7.722-3.957c-1.6 0-2.9 1.773-2.9 3.957s1.3 3.957 2.9 3.957 2.9-1.773 2.9-3.957-1.301-3.957-2.9-3.957Z" fill="#ff5c5c"/><g fill="#0a346d"><path d="M29.228 9.353a1.169 1.169 0 1 0 0 2.338 17.544 17.544 0 1 1-13.64 6.519v3.223a1.169 1.169 0 1 0 2.338 0v-6.234a1.169 1.169 0 0 0-1.173-1.169h-6.231a1.169 1.169 0 0 0 0 2.338h3.571a19.863 19.863 0 1 0 15.135-7.015Z"/><path d="M29.229 0a29.229 29.229 0 1 0 29.228 29.229A29.229 29.229 0 0 0 29.229 0Zm0 56.119a26.89 26.89 0 1 1 26.89-26.89 26.89 26.89 0 0 1-26.89 26.89Z"/><path d="M34.247 35.901a1.169 1.169 0 1 0 1.653-1.653l-5.5-5.5v-8.873a1.169 1.169 0 0 0-2.338 0v9.353a1.169 1.169 0 0 0 .342.826Z"/></g></svg>