<svg xmlns="http://www.w3.org/2000/svg" width="88.699" height="62.267" viewBox="0 0 88.699 62.267"><path d="M0 49.162a5.894 5.894 0 0 0 5.885 5.9h58.852a5.894 5.894 0 0 0 5.885-5.9V27.531H0Zm23.541-8.357a1.477 1.477 0 0 1 1.471-1.475h16.675a1.477 1.477 0 0 1 1.471 1.475v4.915a1.477 1.477 0 0 1-1.471 1.475H25.012a1.477 1.477 0 0 1-1.471-1.475Zm-15.694 0a1.477 1.477 0 0 1 1.471-1.475h8.828a1.477 1.477 0 0 1 1.471 1.475v4.915a1.477 1.477 0 0 1-1.471 1.475H9.318a1.477 1.477 0 0 1-1.471-1.475Zm62.775-34.9v5.9H0v-5.9a5.894 5.894 0 0 1 5.885-5.9h58.852a5.894 5.894 0 0 1 5.885 5.894Z" fill="#505050"/><g fill="#2fc390"><path d="M58.675 60.767c-1.099 0-2.272-.543-3.22-1.491L45.12 48.94a2.231 2.231 0 0 1-.66-1.586c0-.597.234-1.161.66-1.587l3.285-3.285a2.22 2.22 0 0 1 1.577-.66 2.22 2.22 0 0 1 1.578.66l7.13 7.13 21.43-21.59a2.184 2.184 0 0 1 1.605-.688c.62 0 1.204.253 1.61.696l3.224 3.315c.817.826.863 2.138.107 3.056l-.045.055-.05.05L61.897 59.31l-.44.442h-.093c-.633.486-1.578 1.015-2.69 1.015Z"/><path d="M81.725 28.835a.67.67 0 0 0-.517.222l-22.515 22.68-8.194-8.193a.714.714 0 0 0-1.033 0l-3.285 3.285a.735.735 0 0 0 0 1.052l10.334 10.334c.665.665 1.477 1.052 2.16 1.052.978 0 1.827-.72 2.14-1.015h.019L85.508 33.45c.258-.314.258-.775-.019-1.052l-3.248-3.34a.698.698 0 0 0-.516-.222m0-3c1.032 0 2.01.423 2.699 1.163l3.207 3.298a3.714 3.714 0 0 1 1.068 2.577c.011.902-.3 1.784-.875 2.483l-.09.109-25.653 25.787h-.24c-.804.528-1.89 1.015-3.166 1.015-1.494 0-3.054-.704-4.28-1.93L44.06 50.002a3.72 3.72 0 0 1-1.1-2.647c0-.998.39-1.938 1.1-2.648l3.284-3.285a3.71 3.71 0 0 1 5.277 0l6.064 6.065L79.04 26.982a3.685 3.685 0 0 1 2.685-1.147Z" fill="#f7f7fa"/></g></svg>