<svg xmlns="http://www.w3.org/2000/svg" width="76.665" height="57.66" viewBox="0 0 76.665 57.66"><path d="m28.83 0-1.369.649L2.234 11.244 0 12.181v2.234C0 26.379 4.829 36.9 10.6 44.614a45.833 45.833 0 0 0 9 9.226c3.027 2.234 5.982 3.82 9.226 3.82 3.315 0 6.2-1.586 9.226-3.82a45.833 45.833 0 0 0 9.009-9.226c5.766-7.712 10.6-18.235 10.6-30.2v-2.233l-2.234-.937L30.2.649 28.83 0Zm0 7.856v42.6a11.854 11.854 0 0 1-4.757-2.234 39.848 39.848 0 0 1-7.64-7.856A45.125 45.125 0 0 1 7.64 16.721l21.19-8.793Z" fill="#505050"/><g fill="#2fc390"><path d="M47.94 55.902c-1.065 0-2.2-.526-3.116-1.441l-9.837-9.838a2.192 2.192 0 0 1-.65-1.561c0-.588.23-1.142.65-1.561l3.126-3.127c.42-.42.971-.65 1.553-.65s1.133.23 1.553.65l6.735 6.735L68.302 24.61c.401-.43.973-.677 1.58-.677.61 0 1.185.25 1.586.685l3.067 3.154c.804.813.85 2.103.106 3.007l-.045.054-.05.05-23.487 23.61-.44.442h-.094c-.612.466-1.519.967-2.585.967Z"/><path d="M69.882 25.433a.638.638 0 0 0-.492.211l-21.432 21.59-7.8-7.8a.68.68 0 0 0-.984 0l-3.127 3.127a.7.7 0 0 0 0 1.002l9.838 9.837c.632.633 1.405 1.002 2.055 1.002.931 0 1.74-.686 2.038-.967h.018l23.487-23.61c.246-.299.246-.738-.018-1.001l-3.092-3.18a.665.665 0 0 0-.491-.21m0-3c1.022 0 1.99.418 2.673 1.15l3.053 3.14a3.679 3.679 0 0 1 1.057 2.55 3.799 3.799 0 0 1-.866 2.458l-.09.109-24.466 24.594h-.247c-.779.506-1.826.967-3.056.967-1.46 0-2.982-.686-4.177-1.88l-9.837-9.838a3.686 3.686 0 0 1-1.09-2.622c0-.988.387-1.92 1.09-2.622l3.127-3.127a3.675 3.675 0 0 1 5.226 0l5.67 5.67L67.224 23.57a3.652 3.652 0 0 1 2.659-1.136Z" fill="#f7f7fa"/></g></svg>