<svg xmlns="http://www.w3.org/2000/svg" width="78.915" height="62.011" viewBox="0 0 78.915 62.011"><path d="M29.639 0a29.639 29.639 0 1 0 29.639 29.639A29.634 29.634 0 0 0 29.639 0Zm1.995 32.2a2 2 0 0 1-1.995 1.995h-13.68a1.995 1.995 0 1 1 0-3.99h11.685V11.4a1.995 1.995 0 1 1 3.99 0Z" fill="#505050"/><g fill="#2fc390"><path d="M49.978 60.511c-1.07 0-2.212-.528-3.133-1.449l-9.919-9.918a2.201 2.201 0 0 1-.652-1.566c0-.589.232-1.145.652-1.565l3.153-3.153a2.19 2.19 0 0 1 1.557-.652 2.19 2.19 0 0 1 1.556.652l6.8 6.8 20.525-20.677a2.156 2.156 0 0 1 1.583-.679c.612 0 1.189.25 1.59.687l3.093 3.18c.806.815.852 2.109.106 3.015l-.045.054-.05.05-23.68 23.805-.44.442h-.095c-.615.469-1.528.974-2.601.974Z"/><path d="M72.1 29.804a.643.643 0 0 0-.496.213L49.996 51.785l-7.864-7.864a.685.685 0 0 0-.992 0l-3.153 3.152a.706.706 0 0 0 0 1.01l9.919 9.919c.637.637 1.417 1.01 2.072 1.01.939 0 1.753-.691 2.055-.975h.017l23.681-23.805c.248-.3.248-.744-.018-1.01l-3.117-3.205a.67.67 0 0 0-.496-.213m0-3c1.024 0 1.994.42 2.678 1.154l3.077 3.164a3.685 3.685 0 0 1 1.06 2.556 3.805 3.805 0 0 1-.868 2.461l-.09.11-24.66 24.788h-.245c-.783.51-1.836.974-3.074.974-1.465 0-2.994-.688-4.194-1.888l-9.918-9.919a3.691 3.691 0 0 1-1.092-2.626c0-.99.388-1.922 1.092-2.626l3.152-3.153a3.681 3.681 0 0 1 5.235 0l5.735 5.735 19.45-19.592a3.657 3.657 0 0 1 2.662-1.138Z" fill="#f7f7fa"/></g></svg>